<svg width="92" height="92" viewBox="0 0 92 92" fill="none" xmlns="http://www.w3.org/2000/svg">
<path d="M28.0182 54.2242H30.1091C30.9454 54.2242 31.503 53.6667 31.503 52.8303V47.3939C31.503 46.5576 30.9454 46 30.1091 46H29.8303C31.6424 38.7515 38.3333 33.5939 45.8606 33.5939C53.3879 33.5939 60.0788 38.8909 61.8909 46H61.6121C60.7757 46 60.2182 46.5576 60.2182 47.3939V52.6909C60.2182 53.5273 60.7757 54.0848 61.6121 54.0848H62.0303C61.1939 55.7576 59.5212 57.4303 56.8727 58.1273C58.406 55.897 59.2424 53.1091 59.2424 50.3212C59.2424 43.0727 53.2485 37.2182 46 37.2182C38.6121 37.2182 32.7576 43.0727 32.7576 50.3212C32.7576 57.8485 39.0303 64.4 46 64.4C48.9273 64.4 51.8545 63.2848 54.0848 61.3333C59.103 61.4727 64.1212 58.1273 65.097 53.8061C66.4909 53.2485 67.606 51.8545 67.606 50.1818V49.6242C67.606 47.9515 66.4909 46.5576 64.9576 46C63.1454 37.0788 55.2 30.5273 46 30.5273C36.8 30.5273 28.8545 37.0788 27.0424 46C25.5091 46.5576 24.3939 47.9515 24.3939 49.6242V50.1818C24.1151 52.5515 25.9273 54.2242 28.0182 54.2242ZM45.7212 61.7515C40.2848 61.7515 35.2666 56.3151 35.2666 50.4606C35.2666 44.7455 40.006 40.1454 45.7212 40.1454C51.5757 40.1454 56.1757 44.7455 56.1757 50.4606C56.1757 53.5273 54.7818 56.4545 52.6909 58.5455C51.7151 58.4061 50.7394 57.9879 49.7636 57.4303L49.903 57.2909C50.4606 56.7333 50.3212 55.897 49.7636 55.3394C49.206 54.7818 48.3697 54.9212 47.8121 55.4788L45.5818 57.9879C45.0242 58.5455 45.1636 59.3818 45.7212 59.9394C46 60.2182 46.2788 60.3576 46.6969 60.3576C47.1151 60.3576 47.3939 60.2182 47.6727 59.9394L47.9515 59.6606C48.5091 60.0788 49.206 60.497 49.903 60.7758C48.6485 61.3333 47.2545 61.7515 45.7212 61.7515ZM64.5394 50.3212C64.5394 50.8788 64.1212 51.297 63.5636 51.297H62.8666V48.7879H63.5636C64.1212 48.7879 64.5394 49.2061 64.5394 49.7636V50.3212ZM28.5757 51.4364H27.8788C27.3212 51.4364 26.903 51.0182 26.903 50.4606V49.903C26.903 49.3454 27.3212 48.9273 27.8788 48.9273H28.5757V51.4364Z" fill="#233D63"/>
<path d="M59.6606 32.7576L69.697 27.8788C71.3697 28.297 73.1818 28.5758 74.9939 28.5758C84.3333 28.5758 92 22.1636 92 14.2182C92 6.27273 84.3333 0 74.9939 0C65.6545 0 58.1273 6.41212 58.1273 14.3576C58.1273 17.8424 59.5212 21.0485 62.1697 23.697L57.9879 30.8061C57.7091 31.3636 57.7091 32.0606 58.1273 32.4788C58.4061 32.897 59.103 32.897 59.6606 32.7576ZM60.9152 14.3576C60.9152 7.94546 67.3273 2.78788 75.1333 2.78788C82.8 2.78788 89.2121 7.94546 89.2121 14.3576C89.2121 20.7697 82.8 25.9273 74.9939 25.9273C73.3212 25.9273 71.6485 25.6485 69.9758 25.2303C69.697 25.0909 69.2788 25.0909 69 25.3697L62.5879 28.4364L65.097 24.2545C65.5152 23.697 65.3758 22.8606 64.8182 22.4424C62.3091 20.2121 60.9152 17.2848 60.9152 14.3576Z" fill="#233D63"/>
<path d="M82.2424 76.1091H81.5455C84.0545 74.5757 85.8667 71.7879 85.8667 68.5818C85.8667 63.703 81.8242 59.8 76.9455 59.8C72.0667 59.8 68.0242 63.703 68.0242 68.5818C68.0242 71.7879 69.697 74.5757 72.3455 76.1091H71.5091C70.3939 76.1091 69.1394 76.3879 68.1636 76.6667C66.7697 70.1151 60.9151 65.097 53.8061 65.097H37.6364C30.6667 65.097 24.8121 69.9757 23.4182 76.5273C22.4424 76.2485 21.4667 76.1091 20.4909 76.1091H19.9333C22.4424 74.5757 24.2545 71.7879 24.2545 68.5818C24.2545 63.703 20.2121 59.8 15.3333 59.8C10.4545 59.8 6.41212 63.703 6.41212 68.5818C6.41212 71.7879 8.08485 74.5757 10.7333 76.1091H9.75758C4.32121 76.1091 0 80.5697 0 85.8666V90.606C0 91.4424 0.557576 92 1.39394 92H28.8545C29.6909 92 30.2485 91.4424 30.2485 90.606V88.3757H61.7515V90.606C61.7515 91.4424 62.3091 92 63.1455 92H90.6061C91.4424 92 92 91.4424 92 90.606V85.8666C92 80.4303 87.5394 76.1091 82.2424 76.1091ZM76.9455 62.4485C80.2909 62.4485 83.0788 65.2363 83.0788 68.4424C83.0788 71.7879 80.2909 74.4364 76.9455 74.4364C73.6 74.4364 70.8121 71.6485 70.8121 68.4424C70.9515 65.097 73.6 62.4485 76.9455 62.4485ZM15.1939 62.4485C18.5394 62.4485 21.3273 65.2363 21.3273 68.4424C21.3273 71.7879 18.5394 74.4364 15.1939 74.4364C11.8485 74.4364 9.06061 71.6485 9.06061 68.4424C9.2 65.097 11.8485 62.4485 15.1939 62.4485ZM37.6364 67.8848H53.8061C60.3576 67.8848 65.6545 73.1818 65.6545 79.7333V85.5879C0.557573 85.5879 39.8667 85.5879 25.6485 85.5879V79.7333C25.6485 79.3151 25.6485 79.0364 25.6485 78.6182C25.6485 78.6182 25.6485 78.6182 25.6485 78.4788C26.4848 72.6242 31.503 67.8848 37.6364 67.8848ZM27.4606 89.2121H2.78788V85.8666C2.78788 81.9636 5.99394 78.897 9.75758 78.897H20.3515C21.1879 78.897 22.1636 79.0364 22.8606 79.3151C22.8606 79.4545 22.8606 79.5939 22.8606 79.7333V86.9818C22.8606 87.8182 23.4182 88.3757 24.2545 88.3757H27.3212V89.2121H27.4606ZM89.2121 89.2121H64.5394V88.3757H67.1879C68.0242 88.3757 68.5818 87.8182 68.5818 86.9818V79.7333C68.5818 79.5939 68.5818 79.5939 68.5818 79.4545C69.5576 79.0363 70.5333 78.7576 71.6485 78.7576H82.2424C86.1455 78.7576 89.2121 81.9636 89.2121 85.7273V89.2121Z" fill="#233D63"/>
<path d="M67.4667 11.1515H82.2425C83.0788 11.1515 83.6364 10.5939 83.6364 9.75757C83.6364 8.92121 83.0788 8.36363 82.2425 8.36363H67.4667C66.6303 8.36363 66.0728 8.92121 66.0728 9.75757C66.0728 10.4545 66.7697 11.1515 67.4667 11.1515Z" fill="#3E81C1"/>
<path d="M67.4667 16.3091H82.2425C83.0788 16.3091 83.6364 15.7515 83.6364 14.9151C83.6364 14.0788 83.0788 13.5212 82.2425 13.5212H67.4667C66.6303 13.5212 66.0728 14.0788 66.0728 14.9151C66.0728 15.6121 66.7697 16.3091 67.4667 16.3091Z" fill="#3E81C1"/>
<path d="M82.2425 18.6788H72.9031C72.0667 18.6788 71.5092 19.2363 71.5092 20.0727C71.5092 20.9091 72.0667 21.4667 72.9031 21.4667H82.2425C83.0789 21.4667 83.6364 20.9091 83.6364 20.0727C83.6364 19.2363 82.9395 18.6788 82.2425 18.6788Z" fill="#3E81C1"/>
</svg>
