<svg width="92" height="92" viewBox="0 0 92 92" fill="none" xmlns="http://www.w3.org/2000/svg">
<path d="M91.9952 33.7489V22.6428L85.1177 21.7748C84.6874 20.3504 84.1124 18.9778 83.4039 17.6684L87.6624 12.1783L79.8168 4.33272L74.3305 8.59128C73.0247 7.88276 71.6485 7.30775 70.224 6.87747L69.3523 0H58.2501L57.3783 6.87747C55.9539 7.30777 54.5814 7.88275 53.2719 8.59128L47.7856 4.33272L42.9892 9.12915C38.9791 7.10377 34.4646 5.93524 29.6724 5.93524C13.313 5.93895 0 19.252 0 35.6152C0 46.8105 6.37663 57.1084 16.3224 62.112V86.0647H22.4059C23.0959 89.4478 26.0932 92 29.6766 92C33.2599 92 36.2573 89.4478 36.9472 86.0647H43.0307V62.112C48.7471 59.2372 53.2726 54.6077 56.0997 49.0697C56.5188 49.2292 56.9454 49.3739 57.3832 49.5074L58.2549 56.3886H69.3571L70.2289 49.5111C71.6533 49.0808 73.0259 48.5058 74.3353 47.7973L79.8216 52.0559L87.6673 44.2102L83.4087 38.7202C84.1172 37.4144 84.6922 36.0382 85.1225 34.6138L92 33.7457L91.9952 33.7489ZM40.9227 59.8345L40.0621 60.2351V74.1938H34.1268V77.1614H40.0621V83.0967H34.1268V84.5805C34.1268 87.0361 32.1311 89.0319 29.6754 89.0319C27.2197 89.0319 25.224 87.0361 25.224 84.5805V83.0967H19.2887V77.1614H31.1592V74.1938H19.2887V60.2351L18.4281 59.8345C9.03565 55.4832 2.96709 45.9754 2.96709 35.6149C2.96709 20.8879 14.9487 8.90633 29.6756 8.90633C44.4026 8.90633 56.3842 20.8879 56.3842 35.6149C56.3842 45.9754 50.315 55.4832 40.9227 59.8345ZM59.2697 34.0157C59.0953 30.755 58.4054 27.6353 57.2591 24.7345C58.5314 22.3159 61.0317 20.7727 63.8027 20.7727C67.8943 20.7727 71.2217 24.1002 71.2217 28.1918C71.2217 32.2834 67.8943 35.6108 63.8027 35.6108C62.1334 35.6108 60.5568 35.0321 59.2697 34.0157ZM83.7153 43.9575L79.5717 48.101L74.5639 44.2134L73.6922 44.7401C72.0822 45.712 70.3388 46.4391 68.5137 46.9028L67.5344 47.1513L66.7406 53.4167H60.8684L60.0745 47.155L59.099 46.9028C58.4832 46.7432 57.8934 46.5541 57.3147 46.3426C58.4016 43.5531 59.0842 40.5928 59.2845 37.5362C60.6755 38.2151 62.2186 38.575 63.8026 38.575C69.5301 38.575 74.1898 33.9158 74.1898 28.1878C74.1898 22.4598 69.5307 17.8007 63.8026 17.8007C60.657 17.8007 57.7487 19.2214 55.8086 21.5621C53.4086 17.1181 49.8993 13.3678 45.6665 10.6451L48.0368 8.27468L53.0447 12.1623L53.9164 11.6356C55.5263 10.6637 57.2698 9.93655 59.0949 9.47294L60.0741 9.2244L60.868 2.95898H66.7402L67.534 9.2244L68.5133 9.47294C70.3384 9.93663 72.0818 10.6637 73.6917 11.6356L74.5635 12.1623L79.5713 8.27468L83.7149 12.4182L79.8272 17.4261L80.354 18.2978C81.3258 19.9077 82.053 21.6512 82.5166 23.4763L82.7651 24.4555L89.0306 25.2494V31.1215L82.7651 31.9154L82.5166 32.8947C82.0529 34.7198 81.3258 36.4632 80.354 38.0731L79.8272 38.9449L83.7149 43.9527L83.7153 43.9575Z" fill="#233D63"/>
<path d="M31.0027 18.473L28.3467 17.145L19.8556 34.1312H32.7013L25.3862 48.2865L28.0273 49.6516L37.5759 31.1631H24.6561L31.0027 18.473Z" fill="#3E81C1"/>
</svg>
