<svg width="92" height="92" viewBox="0 0 92 92" fill="none" xmlns="http://www.w3.org/2000/svg">
<path d="M19.2903 77.1613C16.836 77.1613 14.8387 79.1586 14.8387 81.6129C14.8387 84.0672 16.836 86.0645 19.2903 86.0645C21.7446 86.0645 23.7419 84.0672 23.7419 81.6129C23.7419 79.1586 21.7446 77.1613 19.2903 77.1613ZM19.2903 83.0968C18.4712 83.0968 17.8064 82.4305 17.8064 81.6129C17.8064 80.7953 18.4712 80.129 19.2903 80.129C20.1094 80.129 20.7742 80.7953 20.7742 81.6129C20.7742 82.4305 20.1094 83.0968 19.2903 83.0968Z" fill="#233D63"/>
<path d="M17.8065 35.6129C27.6252 35.6129 35.6129 27.6252 35.6129 17.8065C35.6129 7.98768 27.6252 0 17.8065 0C7.98768 0 0 7.98768 0 17.8065C0 27.6252 7.98768 35.6129 17.8065 35.6129ZM17.8065 2.96774C25.9885 2.96774 32.6452 9.62439 32.6452 17.8065C32.6452 25.9885 25.9885 32.6452 17.8065 32.6452C9.62439 32.6452 2.96774 25.9885 2.96774 17.8065C2.96774 9.62439 9.62439 2.96774 17.8065 2.96774Z" fill="#233D63"/>
<path d="M13.6947 26.0271C13.5419 26.9382 13.7971 27.8641 14.3951 28.5675C14.9916 29.2738 15.8627 29.6774 16.7871 29.6774C17.9831 29.6774 19.0559 29.0141 19.5916 27.9457L27.6268 11.871H22.6751L24.159 5.93549H15.2928L9.72833 20.7742H14.5702L13.6947 26.0271ZM14.0123 17.8065L17.351 8.90323H20.3558L18.8719 14.8387H22.8235L16.934 26.6177C16.9088 26.6741 16.8494 26.7097 16.7871 26.7097L16.6239 26.5168L18.0751 17.8065H14.0123Z" fill="#3E81C1"/>
<path d="M92 22.2581V7.41935C92 3.32832 88.6717 0 84.5806 0H57.871C53.7799 0 50.4516 3.32832 50.4516 7.41935V22.2581C50.4516 26.8774 52.811 30.9565 56.3871 33.3545V38.5806H37.8298C32.3439 38.5806 27.3359 42.0203 25.3653 47.1411L21.1867 58.009L11.4659 59.3979C4.92794 60.3327 0 66.0159 0 72.6177V80.129C0 83.4025 2.66206 86.0645 5.93548 86.0645H9.91968C11.5905 89.5679 15.1577 92 19.2903 92C23.4229 92 26.9886 89.5679 28.661 86.0645H65.2903V92H68.2581V77.1613H74.1936V92H77.1613V86.0645H86.0645C89.3379 86.0645 92 83.4025 92 80.129V67.7906C92 63.7605 89.6451 60.1413 86.0645 58.4378V33.3545C89.6406 30.9565 92 26.8774 92 22.2581ZM53.4194 22.2581V7.41935C53.4194 4.96503 55.4166 2.96774 57.871 2.96774H84.5806C87.035 2.96774 89.0323 4.96503 89.0323 7.41935V22.2581C89.0323 27.9858 84.3714 32.6452 78.6452 32.6452H63.8065C58.0802 32.6452 53.4194 27.9858 53.4194 22.2581ZM65.2903 35.6129H77.1613V59.3548H65.2903V35.6129ZM75.6774 74.1936H66.7742C65.9551 74.1936 65.2903 73.5273 65.2903 72.7097V68.2581H77.1613V72.7097C77.1613 73.5273 76.4965 74.1936 75.6774 74.1936ZM65.2903 76.8883V77.1613H53.4194V59.3548H56.3871V63.8065C56.3871 66.2608 58.3844 68.2581 60.8387 68.2581H62.3226V72.7097C62.3226 74.6417 63.5676 76.2739 65.2903 76.8883ZM56.3871 56.3871H53.4194V47.4839H56.3871V56.3871ZM50.4516 56.3871H39.7915C39.1772 54.6643 37.5449 53.4194 35.6129 53.4194H32.6778L33.675 50.3374C34.3308 48.6309 36.0002 47.4839 37.8298 47.4839H50.4516V56.3871ZM31.1613 58.1054L31.7177 56.3871H35.6129C36.432 56.3871 37.0968 57.0534 37.0968 57.871C37.0968 58.6886 36.432 59.3548 35.6129 59.3548H31.1613V58.1054ZM31.1613 62.3226H35.6129C37.5449 62.3226 39.1772 61.0776 39.7915 59.3548H50.4516V62.3226H44.5161V65.2903H50.4516V77.1613H31.1613V62.3226ZM11.8858 62.3344L23.3309 60.6992L28.1357 48.205C29.667 44.2238 33.5637 41.5484 37.8298 41.5484H56.3871V44.5161H37.8298C34.7819 44.5161 31.9982 46.4274 30.8779 49.3476L28.2648 57.4139L28.201 76.3036C26.3862 73.2691 23.0757 71.2258 19.2903 71.2258C15.1577 71.2258 11.592 73.6579 9.91968 77.1613H2.96774V74.1936H7.41935C9.87368 74.1936 11.871 72.1963 11.871 69.7419C11.871 67.2876 9.87368 65.2903 7.41935 65.2903H6.02452C7.57071 63.7397 9.59916 62.6624 11.8858 62.3344ZM3.0731 71.2258C3.21555 70.1841 3.51084 69.1855 3.94561 68.2581H7.41935C8.23845 68.2581 8.90323 68.9243 8.90323 69.7419C8.90323 70.5595 8.23845 71.2258 7.41935 71.2258H3.0731ZM5.93548 83.0968C4.29877 83.0968 2.96774 81.7657 2.96774 80.129H9.02194C8.95219 80.6157 8.90323 81.1084 8.90323 81.6129C8.90323 82.1174 8.95219 82.6101 9.02194 83.0968H5.93548ZM19.2903 89.0323C15.1993 89.0323 11.871 85.7039 11.871 81.6129C11.871 77.5219 15.1993 74.1936 19.2903 74.1936C23.3814 74.1936 26.7097 77.5219 26.7097 81.6129C26.7097 85.7039 23.3814 89.0323 19.2903 89.0323ZM29.5587 83.0968C29.6285 82.6101 29.6774 82.1174 29.6774 81.6129C29.6774 81.1084 29.6285 80.6157 29.5587 80.129H65.2903V83.0968H29.5587ZM86.0645 83.0968H77.1613V80.129H89.0323C89.0323 81.7657 87.7012 83.0968 86.0645 83.0968ZM86.0645 77.1613V75.6774C86.0645 74.8598 86.7293 74.1936 87.5484 74.1936H89.0323V77.1613H86.0645ZM89.0323 67.7906V71.2258H87.5484C85.0941 71.2258 83.0968 73.2231 83.0968 75.6774V77.1613H77.1613V76.8883C78.8841 76.2739 80.129 74.6417 80.129 72.7097V68.2581H81.6129C84.0672 68.2581 86.0645 66.2608 86.0645 63.8065V61.8596C87.8956 63.2352 89.0323 65.4179 89.0323 67.7906ZM83.0968 63.8065C83.0968 64.6241 82.432 65.2903 81.6129 65.2903H60.8387C60.0196 65.2903 59.3548 64.6241 59.3548 63.8065V34.8339C60.3015 35.1707 61.2913 35.4111 62.3226 35.5254V59.3548C62.3226 60.9916 63.6536 62.3226 65.2903 62.3226H77.1613C78.798 62.3226 80.129 60.9916 80.129 59.3548V35.5254C81.1603 35.4111 82.1501 35.1692 83.0968 34.8339V63.8065Z" fill="#233D63"/>
<path d="M63.8064 29.6774H78.6451C82.7362 29.6774 86.0645 26.3491 86.0645 22.2581V8.90323C86.0645 7.26652 84.7335 5.93549 83.0968 5.93549H59.3548C57.7181 5.93549 56.3871 7.26652 56.3871 8.90323V22.2581C56.3871 26.3491 59.7154 29.6774 63.8064 29.6774ZM78.6451 26.7097H63.8064C61.3521 26.7097 59.3548 24.7124 59.3548 22.2581V22.2121C60.7081 24.0298 62.8553 25.2258 65.2903 25.2258C67.7253 25.2258 69.8725 24.0298 71.2258 22.2121C72.5791 24.0298 74.7262 25.2258 77.1613 25.2258C79.5963 25.2258 81.7435 24.0298 83.0968 22.2121V22.2581C83.0968 24.7124 81.0995 26.7097 78.6451 26.7097ZM60.8387 17.8065C60.8387 15.3521 62.836 13.3548 65.2903 13.3548C67.7446 13.3548 69.7419 15.3521 69.7419 17.8065C69.7419 20.2608 67.7446 22.2581 65.2903 22.2581C62.836 22.2581 60.8387 20.2608 60.8387 17.8065ZM72.7097 17.8065C72.7097 15.3521 74.707 13.3548 77.1613 13.3548C79.6156 13.3548 81.6129 15.3521 81.6129 17.8065C81.6129 20.2608 79.6156 22.2581 77.1613 22.2581C74.707 22.2581 72.7097 20.2608 72.7097 17.8065ZM83.0968 8.90323V13.4008C81.7435 11.5831 79.5963 10.3871 77.1613 10.3871C74.7262 10.3871 72.5791 11.5831 71.2258 13.4008C69.8725 11.5831 67.7253 10.3871 65.2903 10.3871C62.8553 10.3871 60.7081 11.5831 59.3548 13.4008V8.90323H83.0968Z" fill="#233D63"/>
<path d="M74.1935 38.5806H68.2581V41.5484H74.1935V38.5806Z" fill="#233D63"/>
<path d="M74.1935 44.5161H68.2581V47.4839H74.1935V44.5161Z" fill="#233D63"/>
<path d="M77.1613 19.2903C77.9808 19.2903 78.6452 18.626 78.6452 17.8065C78.6452 16.9869 77.9808 16.3226 77.1613 16.3226C76.3418 16.3226 75.6774 16.9869 75.6774 17.8065C75.6774 18.626 76.3418 19.2903 77.1613 19.2903Z" fill="#233D63"/>
<path d="M65.2903 19.2903C66.1098 19.2903 66.7742 18.626 66.7742 17.8065C66.7742 16.9869 66.1098 16.3226 65.2903 16.3226C64.4708 16.3226 63.8065 16.9869 63.8065 17.8065C63.8065 18.626 64.4708 19.2903 65.2903 19.2903Z" fill="#233D63"/>
<path d="M19.2903 38.5806H16.3226V41.5484H19.2903V38.5806Z" fill="#3E81C1"/>
<path d="M19.2903 50.4516H16.3226V53.4194H19.2903V50.4516Z" fill="#3E81C1"/>
<path d="M19.2903 44.5161H16.3226V47.4839H19.2903V44.5161Z" fill="#3E81C1"/>
<path d="M47.4839 16.3226H44.5161V19.2903H47.4839V16.3226Z" fill="#3E81C1"/>
<path d="M41.5484 16.3226H38.5806V19.2903H41.5484V16.3226Z" fill="#3E81C1"/>
</svg>
