<svg width="64" height="64" viewBox="0 0 64 64" fill="none" xmlns="http://www.w3.org/2000/svg">
<path fill-rule="evenodd" clip-rule="evenodd" d="M49 12C49 11.204 48.684 10.441 48.121 9.879C47.559 9.316 46.796 9 46 9H18C17.204 9 16.441 9.316 15.879 9.879C15.316 10.441 15 11.204 15 12C15 12.796 15.316 13.559 15.879 14.121C16.441 14.684 17.204 15 18 15H46C46.796 15 47.559 14.684 48.121 14.121C48.684 13.559 49 12.796 49 12ZM47 12C47 12.265 46.895 12.52 46.707 12.707C46.52 12.895 46.265 13 46 13H18C17.735 13 17.48 12.895 17.293 12.707C17.105 12.52 17 12.265 17 12C17 11.735 17.105 11.48 17.293 11.293C17.48 11.105 17.735 11 18 11H46C46.265 11 46.52 11.105 46.707 11.293C46.895 11.48 47 11.735 47 12Z" fill="#233D63"/>
<path fill-rule="evenodd" clip-rule="evenodd" d="M49 32C49 31.204 48.684 30.441 48.121 29.879C47.559 29.316 46.796 29 46 29H18C17.204 29 16.441 29.316 15.879 29.879C15.316 30.441 15 31.204 15 32C15 32.796 15.316 33.559 15.879 34.121C16.441 34.684 17.204 35 18 35H46C46.796 35 47.559 34.684 48.121 34.121C48.684 33.559 49 32.796 49 32ZM47 32C47 32.265 46.895 32.52 46.707 32.707C46.52 32.895 46.265 33 46 33H18C17.735 33 17.48 32.895 17.293 32.707C17.105 32.52 17 32.265 17 32C17 31.735 17.105 31.48 17.293 31.293C17.48 31.105 17.735 31 18 31H46C46.265 31 46.52 31.105 46.707 31.293C46.895 31.48 47 31.735 47 32Z" fill="#233D63"/>
<path fill-rule="evenodd" clip-rule="evenodd" d="M49 53C49 52.204 48.684 51.441 48.121 50.879C47.559 50.316 46.796 50 46 50H18C17.204 50 16.441 50.316 15.879 50.879C15.316 51.441 15 52.204 15 53C15 53.796 15.316 54.559 15.879 55.121C16.441 55.684 17.204 56 18 56H46C46.796 56 47.559 55.684 48.121 55.121C48.684 54.559 49 53.796 49 53ZM47 53C47 53.265 46.895 53.52 46.707 53.707C46.52 53.895 46.265 54 46 54H18C17.735 54 17.48 53.895 17.293 53.707C17.105 53.52 17 53.265 17 53C17 52.735 17.105 52.48 17.293 52.293C17.48 52.105 17.735 52 18 52H46C46.265 52 46.52 52.105 46.707 52.293C46.895 52.48 47 52.735 47 53Z" fill="#233D63"/>
<path fill-rule="evenodd" clip-rule="evenodd" d="M41 10H44C44.552 10 45 9.552 45 9C45 8.448 44.552 8 44 8H41C40.448 8 40 8.448 40 9C40 9.552 40.448 10 41 10Z" fill="#233D63"/>
<path fill-rule="evenodd" clip-rule="evenodd" d="M47 30V27C47 26.448 46.552 26 46 26C45.448 26 45 26.448 45 27V30C45 30.552 45.448 31 46 31C46.552 31 47 30.552 47 30Z" fill="#233D63"/>
<path fill-rule="evenodd" clip-rule="evenodd" d="M19 15V30C19 30.552 18.552 31 18 31C17.448 31 17 30.552 17 30V14C17 13.448 17.448 13 18 13H46C46.552 13 47 13.448 47 14V17C47 17.552 46.552 18 46 18C45.448 18 45 17.552 45 17V15H19Z" fill="#233D63"/>
<path fill-rule="evenodd" clip-rule="evenodd" d="M45 50V34C45 33.448 45.448 33 46 33C46.552 33 47 33.448 47 34V51C47 51.552 46.552 52 46 52H18C17.448 52 17 51.552 17 51V34C17 33.448 17.448 33 18 33C18.552 33 19 33.448 19 34V50H45Z" fill="#233D63"/>
<path fill-rule="evenodd" clip-rule="evenodd" d="M46.789 16.385C46.599 16.142 46.308 16 46 16C45.692 16 45.401 16.142 45.211 16.385C45.211 16.385 42 20.582 42 23.923C42 26.18 43.799 28 46 28C48.201 28 50 26.18 50 23.923C50 20.582 46.789 16.385 46.789 16.385ZM46 18.725C45.175 19.983 44 22.097 44 23.923C44 25.062 44.889 26 46 26C47.111 26 48 25.062 48 23.923C48 22.097 46.825 19.983 46 18.725Z" fill="#3E81C1"/>
</svg>
