<svg width="60" height="61" viewBox="0 0 60 61" fill="none" xmlns="http://www.w3.org/2000/svg">
<path d="M39.886 22.932C40.1331 23.0284 40.4083 23.0227 40.6511 22.9162C40.894 22.8096 41.0846 22.611 41.181 22.364C41.9347 20.4314 42.1745 18.3364 41.877 16.2835C41.5796 14.2306 40.7551 12.2898 39.4839 10.6506C38.2128 9.01131 36.5384 7.72958 34.6241 6.93041C32.7099 6.13125 30.6212 5.84195 28.5618 6.09075C26.5024 6.33954 24.5427 7.11793 22.8738 8.34996C21.205 9.582 19.884 11.2256 19.0398 13.1204C18.1956 15.0152 17.8569 17.0965 18.057 19.1612C18.257 21.2259 18.9888 23.2035 20.181 24.901C20.2556 25.0107 20.3512 25.1045 20.4624 25.1769C20.5735 25.2493 20.698 25.2989 20.8285 25.3227C20.959 25.3465 21.0929 25.3441 21.2225 25.3157C21.352 25.2873 21.4747 25.2333 21.5832 25.1571C21.6917 25.0808 21.784 24.9837 21.8546 24.8714C21.9252 24.7591 21.9728 24.6339 21.9946 24.503C22.0163 24.3721 22.0118 24.2383 21.9814 24.1092C21.9509 23.98 21.895 23.8583 21.817 23.751C20.8234 22.3364 20.2135 20.6885 20.0468 18.9679C19.88 17.2473 20.1622 15.5129 20.8656 13.9339C21.5691 12.3549 22.6698 10.9852 24.0605 9.95843C25.4511 8.93168 27.0842 8.28295 28.8003 8.07555C30.5165 7.86814 32.2571 8.10914 33.8523 8.77502C35.4475 9.44091 36.8429 10.5089 37.9022 11.8749C38.9616 13.2409 39.6488 14.8582 39.8968 16.5689C40.1447 18.2797 39.945 20.0255 39.317 21.636C39.2692 21.7584 39.2459 21.8891 39.2486 22.0206C39.2513 22.152 39.2799 22.2816 39.3328 22.402C39.3856 22.5224 39.4617 22.6311 39.5566 22.7221C39.6515 22.813 39.7635 22.8843 39.886 22.932Z" fill="#233D63"/>
<path d="M13 22H14.5C14.8738 23.4485 15.4512 24.8367 16.215 26.123L15.146 27.192C15.0505 27.2842 14.9743 27.3946 14.9219 27.5166C14.8695 27.6386 14.8419 27.7698 14.8407 27.9026C14.8396 28.0354 14.8649 28.1671 14.9152 28.29C14.9655 28.4128 15.0397 28.5245 15.1336 28.6184C15.2275 28.7123 15.3391 28.7865 15.462 28.8368C15.5849 28.8871 15.7166 28.9124 15.8494 28.9113C15.9822 28.9101 16.1134 28.8825 16.2354 28.8301C16.3574 28.7777 16.4678 28.7015 16.56 28.606L18.2 26.975C18.3631 26.812 18.4648 26.5976 18.488 26.3681C18.5111 26.1387 18.4542 25.9083 18.327 25.716C17.3338 24.2249 16.639 22.5555 16.281 20.8C16.2349 20.5741 16.1122 20.3711 15.9336 20.2253C15.755 20.0796 15.5315 20 15.301 20H14V16H15.3C15.5305 16 15.754 15.9204 15.9326 15.7747C16.1112 15.6289 16.2339 15.4259 16.28 15.2C16.6372 13.4451 17.3309 11.776 18.323 10.285C18.4502 10.0927 18.5071 9.8623 18.484 9.63286C18.4608 9.40342 18.3591 9.18903 18.196 9.026L17.271 8.102L20.1 5.271L21.024 6.196C21.1871 6.35933 21.4017 6.46122 21.6313 6.48437C21.861 6.50751 22.0916 6.4505 22.284 6.323C23.7753 5.33102 25.4448 4.63756 27.2 4.281C27.426 4.23486 27.6292 4.11198 27.775 3.93319C27.9208 3.7544 28.0003 3.5307 28 3.3V2H32V3.3C32 3.53053 32.0796 3.754 32.2253 3.93258C32.3711 4.11116 32.5741 4.23389 32.8 4.28C34.5545 4.63681 36.2233 5.33026 37.714 6.322C37.9064 6.4495 38.137 6.50651 38.3667 6.48337C38.5963 6.46022 38.8109 6.35833 38.974 6.195L39.898 5.27L42.727 8.1L41.802 9.024C41.6389 9.18703 41.5372 9.40142 41.514 9.63086C41.4909 9.86029 41.5478 10.0907 41.675 10.283C42.6676 11.7745 43.3618 13.4443 43.719 15.2C43.7651 15.4259 43.8878 15.6289 44.0664 15.7747C44.245 15.9204 44.4685 16 44.699 16H46V20H44.7C44.4695 20 44.246 20.0796 44.0674 20.2253C43.8888 20.3711 43.7661 20.5741 43.72 20.8C43.5656 21.559 43.3475 22.3036 43.068 23.026C42.9724 23.2734 42.979 23.5487 43.0864 23.7913C43.1937 24.0339 43.3931 24.2239 43.6405 24.3195C43.8879 24.4151 44.1632 24.4085 44.4058 24.3011C44.6484 24.1938 44.8384 23.9944 44.934 23.747C45.1545 23.1761 45.3415 22.5927 45.494 22H47C47.2652 22 47.5196 21.8946 47.7071 21.7071C47.8946 21.5196 48 21.2652 48 21V15C48 14.7348 47.8946 14.4804 47.7071 14.2929C47.5196 14.1054 47.2652 14 47 14H45.5C45.1262 12.5515 44.5488 11.1633 43.785 9.877L44.854 8.808C45.0415 8.62047 45.1468 8.36616 45.1468 8.101C45.1468 7.83584 45.0415 7.58153 44.854 7.394L40.606 3.15C40.4149 2.96933 40.162 2.86866 39.899 2.86866C39.636 2.86866 39.3831 2.96933 39.192 3.15L38.124 4.219C36.8371 3.45596 35.4486 2.87891 34 2.505V1C34 0.734784 33.8946 0.48043 33.7071 0.292893C33.5196 0.105357 33.2652 0 33 0H27C26.7348 0 26.4804 0.105357 26.2929 0.292893C26.1054 0.48043 26 0.734784 26 1V2.505C24.5514 2.87891 23.1629 3.45596 21.876 4.219L20.808 3.15C20.6169 2.96933 20.364 2.86866 20.101 2.86866C19.838 2.86866 19.5851 2.96933 19.394 3.15L15.151 7.394C14.9635 7.58153 14.8582 7.83584 14.8582 8.101C14.8582 8.36616 14.9635 8.62047 15.151 8.808L16.22 9.877C15.4562 11.1633 14.8788 12.5515 14.505 14H13C12.7348 14 12.4804 14.1054 12.2929 14.2929C12.1054 14.4804 12 14.7348 12 15V21C12 21.2652 12.1054 21.5196 12.2929 21.7071C12.4804 21.8946 12.7348 22 13 22Z" fill="#233D63"/>
<path d="M57 38H53.617C53.3881 38 53.1661 37.9215 52.9881 37.7775C52.8101 37.6336 52.6868 37.4329 52.639 37.209C51.8226 33.4779 49.7593 30.1363 46.7892 27.7352C43.819 25.334 40.1193 24.0165 36.3 24H34V21.9C35.1287 21.6681 36.1428 21.054 36.8715 20.1614C37.6002 19.2688 37.9987 18.1523 38 17V15C37.9984 13.6744 37.4711 12.4036 36.5338 11.4662C35.5964 10.5289 34.3256 10.0016 33 10C32.7348 10 32.4804 10.1054 32.2929 10.2929C32.1054 10.4804 32 10.7348 32 11V14C32 14.5304 31.7893 15.0391 31.4142 15.4142C31.0391 15.7893 30.5304 16 30 16C29.4696 16 28.9609 15.7893 28.5858 15.4142C28.2107 15.0391 28 14.5304 28 14V11C28 10.7348 27.8946 10.4804 27.7071 10.2929C27.5196 10.1054 27.2652 10 27 10C25.6744 10.0016 24.4036 10.5289 23.4662 11.4662C22.5289 12.4036 22.0016 13.6744 22 15V17C22.0013 18.1523 22.3998 19.2688 23.1285 20.1614C23.8572 21.054 24.8713 21.6681 26 21.9V24.97C22.7534 25.986 19.8022 27.7753 17.4 30.184L12.545 35.039C11.8203 35.7608 10.9476 36.3166 9.987 36.668L5.924 38.146C4.19069 38.7805 2.69354 39.931 1.63431 41.4426C0.575083 42.9542 0.00468807 44.7542 0 46.6V51C0.00158786 52.3256 0.528882 53.5964 1.46622 54.5338C2.40356 55.4711 3.67441 55.9984 5 56H5.082C6.10746 57.7829 7.77076 59.1106 9.73653 59.7155C11.7023 60.3204 13.8243 60.1575 15.6747 59.2597C17.5251 58.3618 18.9662 56.7957 19.7076 54.8772C20.4489 52.9587 20.4352 50.8305 19.6693 48.9217C18.9034 47.0129 17.4423 45.4654 15.5805 44.5914C13.7188 43.7173 11.5949 43.5817 9.63701 44.2118C7.67917 44.8419 6.03306 46.1909 5.03056 47.9867C4.02807 49.7826 3.74378 51.8918 4.235 53.889C3.59642 53.7206 3.03125 53.3462 2.62715 52.8238C2.22305 52.3015 2.0026 51.6604 2 51V46.6C2.0066 45.7075 2.18554 44.8246 2.527 44H5C5.79565 44 6.55871 43.6839 7.12132 43.1213C7.68393 42.5587 8 41.7956 8 41V39.518L10.674 38.546C11.9091 38.0951 13.0311 37.3805 13.962 36.452L18.817 31.6C20.5872 29.8194 22.693 28.4076 25.0125 27.4463C27.332 26.4851 29.8192 25.9935 32.33 26H36.3C39.6625 26.0143 42.9197 27.174 45.5346 29.288C48.1494 31.4021 49.9657 34.3441 50.684 37.629C50.8304 38.2988 51.2008 38.8987 51.734 39.3297C52.2672 39.7608 52.9314 39.9972 53.617 40H54V41C54 41.7956 54.3161 42.5587 54.8787 43.1213C55.4413 43.6839 56.2043 44 57 44H58V51C57.9974 51.6604 57.7769 52.3015 57.3728 52.8238C56.9688 53.3462 56.4036 53.7206 55.765 53.889C56.2445 51.9217 55.9607 49.8458 54.9709 48.0793C53.9812 46.3127 52.3588 44.9868 50.4306 44.3685C48.5025 43.7502 46.4116 43.8854 44.5791 44.7469C42.7466 45.6084 41.3086 47.1322 40.5545 49.0115C39.8005 50.8908 39.7865 52.9859 40.5153 54.8751C41.2442 56.7643 42.6617 58.3072 44.4826 59.1931C46.3034 60.079 48.3922 60.2422 50.3285 59.6497C52.2648 59.0572 53.9047 57.7531 54.918 56H55C56.3256 55.9984 57.5964 55.4711 58.5338 54.5338C59.4711 53.5964 59.9984 52.3256 60 51V41C60 40.2044 59.6839 39.4413 59.1213 38.8787C58.5587 38.3161 57.7957 38 57 38ZM12 46C13.1867 46 14.3467 46.3519 15.3334 47.0112C16.3201 47.6705 17.0892 48.6075 17.5433 49.7039C17.9974 50.8003 18.1162 52.0067 17.8847 53.1705C17.6532 54.3344 17.0818 55.4035 16.2426 56.2426C15.4035 57.0818 14.3344 57.6532 13.1705 57.8847C12.0067 58.1162 10.8003 57.9974 9.7039 57.5433C8.60754 57.0892 7.67047 56.3201 7.01118 55.3334C6.35189 54.3467 6 53.1867 6 52C6.00159 50.4092 6.63424 48.884 7.75911 47.7591C8.88399 46.6342 10.4092 46.0016 12 46ZM5 42H3.753C4.37823 41.286 5.1429 40.7075 6 40.3V41C6 41.2652 5.89464 41.5196 5.70711 41.7071C5.51957 41.8946 5.26522 42 5 42ZM27 20C26.2044 20 25.4413 19.6839 24.8787 19.1213C24.3161 18.5587 24 17.7956 24 17V15C24.0008 14.3797 24.1934 13.7749 24.5514 13.2684C24.9095 12.7619 25.4155 12.3786 26 12.171V14C26 15.0609 26.4214 16.0783 27.1716 16.8284C27.9217 17.5786 28.9391 18 30 18C31.0609 18 32.0783 17.5786 32.8284 16.8284C33.5786 16.0783 34 15.0609 34 14V12.171C34.5845 12.3786 35.0905 12.7619 35.4486 13.2684C35.8066 13.7749 35.9992 14.3797 36 15V17C36 17.7956 35.6839 18.5587 35.1213 19.1213C34.5587 19.6839 33.7957 20 33 20C32.7348 20 32.4804 20.1054 32.2929 20.2929C32.1054 20.4804 32 20.7348 32 21V24.016C30.656 24.0343 29.3167 24.1796 28 24.45V21C28 20.7348 27.8946 20.4804 27.7071 20.2929C27.5196 20.1054 27.2652 20 27 20ZM48 58C46.8133 58 45.6533 57.6481 44.6666 56.9888C43.6799 56.3295 42.9108 55.3925 42.4567 54.2961C42.0026 53.1997 41.8838 51.9933 42.1153 50.8295C42.3468 49.6656 42.9182 48.5965 43.7574 47.7574C44.5965 46.9182 45.6656 46.3468 46.8295 46.1153C47.9933 45.8838 49.1997 46.0026 50.2961 46.4567C51.3925 46.9108 52.3295 47.6799 52.9888 48.6666C53.6481 49.6533 54 50.8133 54 52C53.9984 53.5908 53.3658 55.116 52.2409 56.2409C51.116 57.3658 49.5908 57.9984 48 58ZM57 42C56.7348 42 56.4804 41.8946 56.2929 41.7071C56.1054 41.5196 56 41.2652 56 41V40H57C57.2652 40 57.5196 40.1054 57.7071 40.2929C57.8946 40.4804 58 40.7348 58 41V42H57Z" fill="#233D63"/>
<path d="M39 54H21.01C20.7448 54 20.4904 54.1054 20.3029 54.2929C20.1154 54.4804 20.01 54.7348 20.01 55C20.01 55.2652 20.1154 55.5196 20.3029 55.7071C20.4904 55.8946 20.7448 56 21.01 56H39C39.2652 56 39.5196 55.8946 39.7071 55.7071C39.8947 55.5196 40 55.2652 40 55C40 54.7348 39.8947 54.4804 39.7071 54.2929C39.5196 54.1054 39.2652 54 39 54Z" fill="#233D63"/>
<path d="M12 56C12.7911 56 13.5645 55.7654 14.2223 55.3259C14.8801 54.8864 15.3928 54.2616 15.6955 53.5307C15.9983 52.7998 16.0775 51.9956 15.9231 51.2196C15.7688 50.4437 15.3878 49.731 14.8284 49.1716C14.269 48.6122 13.5563 48.2312 12.7804 48.0769C12.0044 47.9225 11.2002 48.0017 10.4693 48.3045C9.73836 48.6072 9.11365 49.1199 8.67412 49.7777C8.2346 50.4355 8 51.2089 8 52C8 53.0609 8.42143 54.0783 9.17157 54.8284C9.92172 55.5786 10.9391 56 12 56ZM12 50C12.3956 50 12.7822 50.1173 13.1111 50.3371C13.44 50.5568 13.6964 50.8692 13.8478 51.2346C13.9991 51.6001 14.0387 52.0022 13.9616 52.3902C13.8844 52.7781 13.6939 53.1345 13.4142 53.4142C13.1345 53.6939 12.7781 53.8844 12.3902 53.9616C12.0022 54.0387 11.6001 53.9991 11.2346 53.8478C10.8692 53.6964 10.5568 53.44 10.3371 53.1111C10.1173 52.7822 10 52.3956 10 52C10 51.4696 10.2107 50.9609 10.5858 50.5858C10.9609 50.2107 11.4696 50 12 50Z" fill="#233D63"/>
<path d="M48 48C47.2089 48 46.4355 48.2346 45.7777 48.6741C45.1199 49.1136 44.6072 49.7384 44.3045 50.4693C44.0017 51.2002 43.9225 52.0044 44.0769 52.7804C44.2312 53.5563 44.6122 54.269 45.1716 54.8284C45.731 55.3878 46.4437 55.7688 47.2196 55.9231C47.9956 56.0775 48.7998 55.9983 49.5307 55.6955C50.2616 55.3928 50.8864 54.8801 51.3259 54.2223C51.7654 53.5645 52 52.7911 52 52C52 50.9391 51.5786 49.9217 50.8284 49.1716C50.0783 48.4214 49.0609 48 48 48ZM48 54C47.6044 54 47.2178 53.8827 46.8889 53.6629C46.56 53.4432 46.3036 53.1308 46.1522 52.7654C46.0009 52.3999 45.9613 51.9978 46.0384 51.6098C46.1156 51.2219 46.3061 50.8655 46.5858 50.5858C46.8655 50.3061 47.2219 50.1156 47.6098 50.0384C47.9978 49.9613 48.3999 50.0009 48.7654 50.1522C49.1308 50.3036 49.4432 50.56 49.6629 50.8889C49.8827 51.2178 50 51.6044 50 52C50 52.5304 49.7893 53.0391 49.4142 53.4142C49.0391 53.7893 48.5304 54 48 54Z" fill="#233D63"/>
<path d="M30 52C32.9163 51.9966 35.7122 50.8365 37.7743 48.7744C39.8365 46.7122 40.9965 43.9163 41 41C41 40.662 40.979 40.33 40.949 40H49C49.1393 40.0006 49.2772 39.972 49.4049 39.9162C49.5326 39.8603 49.6471 39.7784 49.7413 39.6757C49.8355 39.573 49.9071 39.4517 49.9516 39.3197C49.9962 39.1876 50.0126 39.0478 50 38.909C49.718 35.6486 48.2197 32.6137 45.8028 30.4073C43.386 28.2009 40.2275 26.9846 36.955 27H32.311C29.8608 26.9932 27.4337 27.4726 25.1701 28.4103C22.9066 29.3481 20.8515 30.7255 19.124 32.463L13.293 38.293C13.1532 38.4328 13.058 38.611 13.0194 38.805C12.9808 38.9989 13.0006 39.1999 13.0763 39.3826C13.152 39.5653 13.2801 39.7215 13.4445 39.8314C13.6089 39.9413 13.8022 40 14 40H19.051C19.021 40.33 19 40.662 19 41C19.0034 43.9163 20.1634 46.7122 22.2256 48.7744C24.2878 50.8365 27.0836 51.9966 30 52ZM30 50C28.2199 50 26.4799 49.4722 24.9998 48.4832C23.5198 47.4943 22.3662 46.0887 21.6851 44.4441C21.0039 42.7996 20.8256 40.99 21.1729 39.2442C21.5202 37.4984 22.3773 35.8947 23.636 34.636C24.8947 33.3774 26.4983 32.5202 28.2442 32.1729C29.99 31.8257 31.7996 32.0039 33.4441 32.6851C35.0887 33.3663 36.4943 34.5198 37.4832 35.9999C38.4721 37.4799 39 39.22 39 41C38.9973 43.3861 38.0483 45.6738 36.361 47.361C34.6738 49.0483 32.3861 49.9973 30 50ZM47.852 38H45V32.442C46.466 33.9814 47.4563 35.9113 47.852 38ZM16.415 38L20.538 33.877C22.0803 32.3258 23.915 31.0961 25.9358 30.2589C27.9567 29.4218 30.1236 28.9939 32.311 29H36.955C39.0999 28.9969 41.1997 29.6159 43 30.782V38H40.574C39.9232 35.6969 38.5383 33.6692 36.6297 32.2252C34.7211 30.7811 32.3933 29.9997 30 29.9997C27.6067 29.9997 25.2788 30.7811 23.3702 32.2252C21.4617 33.6692 20.0767 35.6969 19.426 38H16.415Z" fill="#233D63"/>
<path d="M34 39H32V35C32 34.7881 31.9327 34.5816 31.8078 34.4104C31.6829 34.2392 31.5068 34.1122 31.305 34.0475C31.1032 33.9829 30.886 33.984 30.6849 34.0508C30.4838 34.1176 30.3091 34.2465 30.186 34.419L25.186 41.419C25.0792 41.5685 25.0157 41.7446 25.0025 41.9278C24.9892 42.1111 25.0267 42.2944 25.1108 42.4578C25.1949 42.6211 25.3224 42.7581 25.4792 42.8538C25.6361 42.9494 25.8163 43 26 43H28V47C27.9999 47.2119 28.0672 47.4184 28.1922 47.5896C28.3171 47.7608 28.4931 47.8878 28.695 47.9525C28.8968 48.0171 29.1139 48.016 29.315 47.9492C29.5162 47.8824 29.6909 47.7535 29.814 47.581L34.814 40.581C34.9207 40.4315 34.9842 40.2554 34.9975 40.0722C35.0107 39.8889 34.9732 39.7056 34.8892 39.5422C34.8051 39.3789 34.6776 39.2419 34.5207 39.1462C34.3639 39.0506 34.1837 39 34 39ZM30 43.88V42C30 41.7348 29.8946 41.4804 29.7071 41.2929C29.5195 41.1054 29.2652 41 29 41H27.943L30 38.12V40C30 40.2652 30.1053 40.5196 30.2929 40.7071C30.4804 40.8946 30.7348 41 31 41H32.057L30 43.88Z" fill="#3E81C1"/>
</svg>
