<svg width="607" height="196" viewBox="0 0 607 196" fill="none" xmlns="http://www.w3.org/2000/svg">
<rect width="607" height="196" fill="white"/>
<path d="M203.034 132.586L202.908 134H198.036L198.134 131.312L198.036 124.984H199.968L199.856 131.144L199.898 132.432H202.922L203.034 132.586ZM210.255 130.976L206.475 131.004C206.559 132.171 207.152 132.754 208.253 132.754C208.832 132.754 209.476 132.591 210.185 132.264L210.339 132.362L210.059 133.748C209.35 134.009 208.682 134.14 208.057 134.14C207.03 134.14 206.223 133.841 205.635 133.244C205.056 132.647 204.767 131.821 204.767 130.766C204.767 129.721 205.052 128.895 205.621 128.288C206.19 127.672 206.96 127.364 207.931 127.364C208.762 127.364 209.401 127.593 209.849 128.05C210.306 128.498 210.535 129.128 210.535 129.94C210.535 130.155 210.512 130.425 210.465 130.752L210.255 130.976ZM208.911 129.73C208.911 129.357 208.827 129.077 208.659 128.89C208.491 128.694 208.244 128.596 207.917 128.596C207.553 128.596 207.25 128.717 207.007 128.96C206.764 129.193 206.601 129.534 206.517 129.982L208.883 129.926L208.911 129.73ZM215.85 132.628C216.149 132.628 216.462 132.549 216.788 132.39L216.942 132.53L216.76 133.636C216.284 133.879 215.799 134.028 215.304 134.084C214.044 133.953 213.414 133.337 213.414 132.236L213.484 131.074L213.47 128.666H212.602L212.532 128.568L212.63 127.546H213.456V126.468L215.15 125.922L215.276 126.034L215.234 127.546H216.9L216.956 127.644L216.872 128.666H215.206L215.122 131.802C215.122 132.101 215.178 132.315 215.29 132.446C215.402 132.567 215.589 132.628 215.85 132.628ZM220.297 124.9C220.568 125.049 220.769 125.231 220.899 125.446C221.03 125.651 221.095 125.908 221.095 126.216C221.095 126.925 220.666 127.691 219.807 128.512L219.163 128.092L219.135 127.952C219.509 127.541 219.695 127.145 219.695 126.762C219.695 126.538 219.653 126.347 219.569 126.188C219.485 126.029 219.341 125.889 219.135 125.768V125.614C219.527 125.315 219.915 125.077 220.297 124.9ZM225.859 127.378C226.493 127.378 227.091 127.485 227.651 127.7L227.399 129.072L227.175 129.142C226.904 128.965 226.633 128.829 226.363 128.736C226.092 128.643 225.854 128.596 225.649 128.596C225.425 128.596 225.247 128.657 225.117 128.778C224.986 128.89 224.921 129.03 224.921 129.198C224.921 129.394 225.005 129.553 225.173 129.674C225.35 129.795 225.625 129.931 225.999 130.08C226.372 130.229 226.68 130.374 226.923 130.514C227.165 130.654 227.371 130.85 227.539 131.102C227.716 131.345 227.805 131.648 227.805 132.012C227.805 132.385 227.707 132.735 227.511 133.062C227.324 133.379 227.035 133.641 226.643 133.846C226.251 134.042 225.77 134.14 225.201 134.14C224.529 134.14 223.833 134 223.115 133.72L223.325 132.264L223.507 132.152C223.796 132.395 224.118 132.591 224.473 132.74C224.827 132.88 225.14 132.95 225.411 132.95C225.663 132.95 225.859 132.889 225.999 132.768C226.139 132.637 226.209 132.483 226.209 132.306C226.209 132.11 226.12 131.951 225.943 131.83C225.775 131.709 225.504 131.573 225.131 131.424C224.748 131.256 224.435 131.107 224.193 130.976C223.95 130.836 223.74 130.64 223.563 130.388C223.395 130.136 223.311 129.823 223.311 129.45C223.311 128.843 223.539 128.349 223.997 127.966C224.454 127.574 225.075 127.378 225.859 127.378ZM237.817 124.872C238.694 124.872 239.483 125.054 240.183 125.418L239.847 127L239.693 127.07C239.413 126.874 239.105 126.72 238.769 126.608C238.433 126.496 238.088 126.44 237.733 126.44C236.249 126.44 235.507 127.415 235.507 129.366C235.507 130.421 235.698 131.214 236.081 131.746C236.473 132.269 237.042 132.53 237.789 132.53C238.134 132.53 238.489 132.479 238.853 132.376C239.226 132.264 239.562 132.115 239.861 131.928L240.029 132.026L239.875 133.636C239.166 133.963 238.419 134.126 237.635 134.126C236.291 134.126 235.264 133.734 234.555 132.95C233.855 132.166 233.505 131.041 233.505 129.576C233.505 128.083 233.878 126.925 234.625 126.104C235.381 125.283 236.445 124.872 237.817 124.872ZM246.714 129.94C246.723 129.604 246.653 129.347 246.504 129.17C246.355 128.993 246.135 128.904 245.846 128.904C245.426 128.904 244.978 129.105 244.502 129.506L244.474 131.13L244.572 134H242.71L242.808 131.298L242.724 124.312L244.586 124.172L244.516 128.414H244.6C245.113 127.947 245.678 127.611 246.294 127.406C247.003 127.406 247.54 127.569 247.904 127.896C248.277 128.213 248.459 128.675 248.45 129.282L248.408 131.144L248.478 134H246.616L246.714 129.94ZM254.081 127.364C254.8 127.364 255.36 127.527 255.761 127.854C256.172 128.171 256.377 128.619 256.377 129.198C256.377 129.366 256.349 129.898 256.293 130.794C256.284 131.055 256.27 131.326 256.251 131.606C256.232 131.877 256.223 132.11 256.223 132.306C256.223 132.465 256.246 132.577 256.293 132.642C256.34 132.698 256.424 132.726 256.545 132.726C256.638 132.726 256.76 132.707 256.909 132.67L257.049 132.782L256.881 133.762C256.582 133.958 256.242 134.075 255.859 134.112C255.579 134.084 255.346 133.986 255.159 133.818C254.972 133.641 254.846 133.398 254.781 133.09H254.683C254.216 133.585 253.736 133.93 253.241 134.126C252.569 134.117 252.042 133.939 251.659 133.594C251.276 133.249 251.085 132.777 251.085 132.18C251.085 131.713 251.202 131.349 251.435 131.088C251.678 130.817 252.042 130.635 252.527 130.542L254.669 130.136V129.562C254.669 128.955 254.37 128.652 253.773 128.652C253.484 128.652 253.176 128.717 252.849 128.848C252.532 128.979 252.172 129.184 251.771 129.464L251.631 129.38L251.421 128.148C251.822 127.896 252.252 127.705 252.709 127.574C253.166 127.434 253.624 127.364 254.081 127.364ZM253.171 131.396C253.022 131.433 252.91 131.499 252.835 131.592C252.77 131.676 252.737 131.807 252.737 131.984C252.737 132.227 252.802 132.418 252.933 132.558C253.064 132.689 253.246 132.754 253.479 132.754C253.843 132.754 254.226 132.539 254.627 132.11L254.655 131.074L253.171 131.396ZM263.175 127.476C263.259 127.476 263.376 127.485 263.525 127.504V129.226L263.329 129.296C263.17 129.231 262.998 129.198 262.811 129.198C262.27 129.198 261.78 129.548 261.341 130.248V131.13L261.439 134H259.577L259.689 131.312L259.605 127.616L261.369 127.462L261.355 128.736H261.467C261.924 127.896 262.494 127.476 263.175 127.476ZM272.048 128.372C271.796 128.437 271.436 128.507 270.97 128.582L270.942 128.638C271.082 128.918 271.152 129.231 271.152 129.576C271.152 130.276 270.895 130.836 270.382 131.256C269.878 131.667 269.192 131.872 268.324 131.872C268.062 131.872 267.792 131.849 267.512 131.802C267.428 131.886 267.372 131.951 267.344 131.998C267.316 132.045 267.302 132.101 267.302 132.166C267.302 132.334 267.414 132.451 267.638 132.516C267.862 132.581 268.216 132.647 268.702 132.712C269.252 132.777 269.71 132.857 270.074 132.95C270.447 133.043 270.764 133.207 271.026 133.44C271.296 133.673 271.432 134.005 271.432 134.434C271.432 134.873 271.292 135.265 271.012 135.61C270.741 135.965 270.363 136.24 269.878 136.436C269.392 136.632 268.842 136.73 268.226 136.73C267.376 136.73 266.723 136.557 266.266 136.212C265.808 135.867 265.58 135.409 265.58 134.84C265.869 134.439 266.256 134.089 266.742 133.79V133.72C266.424 133.608 266.177 133.454 266 133.258C265.822 133.053 265.734 132.782 265.734 132.446C265.986 132.138 266.303 131.853 266.686 131.592V131.522C266.35 131.335 266.093 131.093 265.916 130.794C265.748 130.486 265.664 130.127 265.664 129.716C265.664 128.988 265.916 128.419 266.42 128.008C266.924 127.597 267.61 127.392 268.478 127.392C268.982 127.392 269.439 127.476 269.85 127.644C270.522 127.523 271.208 127.336 271.908 127.084L272.048 127.21V128.372ZM268.38 130.752C268.762 130.752 269.052 130.654 269.248 130.458C269.444 130.262 269.542 129.977 269.542 129.604C269.542 128.895 269.178 128.54 268.45 128.54C267.666 128.54 267.274 128.899 267.274 129.618C267.274 129.991 267.367 130.276 267.554 130.472C267.74 130.659 268.016 130.752 268.38 130.752ZM269.864 134.77C269.864 134.518 269.728 134.345 269.458 134.252C269.196 134.159 268.79 134.079 268.24 134.014L267.764 133.944C267.54 134.093 267.372 134.238 267.26 134.378C267.148 134.518 267.092 134.667 267.092 134.826C267.092 135.069 267.204 135.265 267.428 135.414C267.652 135.563 267.978 135.638 268.408 135.638C268.846 135.638 269.196 135.559 269.458 135.4C269.728 135.251 269.864 135.041 269.864 134.77ZM279.175 130.976L275.395 131.004C275.479 132.171 276.072 132.754 277.173 132.754C277.752 132.754 278.396 132.591 279.105 132.264L279.259 132.362L278.979 133.748C278.27 134.009 277.602 134.14 276.977 134.14C275.95 134.14 275.143 133.841 274.555 133.244C273.976 132.647 273.687 131.821 273.687 130.766C273.687 129.721 273.972 128.895 274.541 128.288C275.11 127.672 275.88 127.364 276.851 127.364C277.682 127.364 278.321 127.593 278.769 128.05C279.226 128.498 279.455 129.128 279.455 129.94C279.455 130.155 279.432 130.425 279.385 130.752L279.175 130.976ZM277.831 129.73C277.831 129.357 277.747 129.077 277.579 128.89C277.411 128.694 277.164 128.596 276.837 128.596C276.473 128.596 276.17 128.717 275.927 128.96C275.684 129.193 275.521 129.534 275.437 129.982L277.803 129.926L277.831 129.73Z" fill="black"/>
<line x1="284.992" y1="131.507" x2="545.001" y2="131.507" stroke="black" stroke-width="2"/>
<path d="M51 65L111.5 30L171 65V133L111.5 168.5L51 133V65Z" fill="url(#paint0_linear_1_2284)"/>
<path d="M51 65L111.5 30L171 65V133L111.5 168.5L51 133V65Z" fill="url(#paint1_linear_1_2284)" fill-opacity="0.5"/>
<path d="M51 106.664V103.706H109L105.865 106.664H51Z" fill="url(#paint2_linear_1_2284)"/>
<path d="M106.112 103.701L109.531 103.701L105.122 118.034L100.571 122.193L106.112 103.701Z" fill="white"/>
<path d="M98.8457 128.109L100.571 122.193L122.191 100.502L126.453 100.502L98.8457 128.109Z" fill="white"/>
<path d="M96.3807 100.502L99.2867 97.5437H129.164L126.453 100.502H96.3807Z" fill="white"/>
<path d="M114 95L114.993 92H170V95H114Z" fill="url(#paint3_linear_1_2284)"/>
<path d="M116.062 80.5358L122.263 69.9366L114.5 95L113 95L111.5 95L116.062 80.5358Z" fill="white"/>
<path d="M96.3807 100.502L91.6974 100.502L122.263 69.9366L120.167 76.3454L96.3807 100.502Z" fill="white"/>
<path d="M233.208 72.736H220.024V108H209.208V72.736H196.024V63.2H233.208V72.736ZM255.465 108.64C252.734 108.64 250.323 108.32 248.233 107.68C246.142 106.997 244.35 105.973 242.857 104.608C241.406 103.2 240.297 101.408 239.529 99.232C238.761 97.0133 238.377 94.3893 238.377 91.36C238.377 87.904 238.803 84.9813 239.657 82.592C240.553 80.2027 241.769 78.2613 243.305 76.768C244.883 75.2747 246.739 74.208 248.873 73.568C251.006 72.8853 253.331 72.544 255.849 72.544C260.969 72.544 264.723 73.8027 267.113 76.32C269.545 78.8373 270.761 82.9333 270.761 88.608C270.761 89.0347 270.739 89.5893 270.697 90.272C270.697 90.912 270.675 91.552 270.633 92.192C269.566 92.2773 268.265 92.384 266.729 92.512C265.193 92.64 263.486 92.768 261.609 92.896C259.731 93.024 257.747 93.1307 255.657 93.216C253.566 93.3013 251.433 93.3653 249.257 93.408C249.214 93.536 249.193 93.664 249.193 93.792C249.193 93.92 249.193 94.0693 249.193 94.24C249.193 95.648 249.47 96.8213 250.025 97.76C250.622 98.656 251.518 99.3387 252.713 99.808C253.907 100.235 255.465 100.448 257.385 100.448C258.579 100.448 259.838 100.384 261.161 100.256C262.483 100.128 263.827 99.9573 265.193 99.744C266.558 99.488 267.923 99.2107 269.289 98.912L270.505 106.464C269.011 106.933 267.475 107.339 265.897 107.68C264.318 108.021 262.675 108.256 260.969 108.384C259.262 108.555 257.427 108.64 255.465 108.64ZM249.321 87.2C250.43 87.2 251.539 87.1787 252.649 87.136C253.758 87.0933 254.803 87.0507 255.785 87.008C256.766 86.9227 257.641 86.8587 258.409 86.816C259.177 86.7733 259.817 86.752 260.329 86.752C260.286 85.0453 260.073 83.7013 259.689 82.72C259.305 81.696 258.75 80.9707 258.025 80.544C257.299 80.1173 256.382 79.904 255.273 79.904C254.505 79.904 253.801 80.0107 253.161 80.224C252.521 80.4373 251.923 80.8213 251.369 81.376C250.857 81.888 250.409 82.6347 250.025 83.616C249.683 84.5547 249.449 85.7493 249.321 87.2ZM280.205 106.656L281.357 99.104C282.125 99.36 283 99.616 283.981 99.872C285.005 100.085 286.05 100.277 287.117 100.448C288.184 100.619 289.229 100.747 290.253 100.832C291.32 100.917 292.301 100.96 293.197 100.96C294.861 100.96 296.077 100.725 296.845 100.256C297.656 99.744 298.061 99.04 298.061 98.144C298.061 97.5467 297.848 97.0773 297.421 96.736C297.037 96.352 296.461 96.0107 295.693 95.712C294.925 95.4133 294.008 95.1573 292.941 94.944C291.874 94.688 290.701 94.3893 289.421 94.048C287.97 93.7493 286.712 93.3227 285.645 92.768C284.578 92.1707 283.661 91.4667 282.893 90.656C282.168 89.8027 281.613 88.8427 281.229 87.776C280.888 86.6667 280.717 85.4293 280.717 84.064C280.717 80.224 281.933 77.344 284.365 75.424C286.797 73.504 290.402 72.544 295.181 72.544C296.632 72.544 298.018 72.6293 299.341 72.8C300.664 72.928 301.922 73.12 303.117 73.376C304.312 73.632 305.4 73.952 306.381 74.336L305.101 82.016C304.162 81.6747 303.181 81.3973 302.157 81.184C301.176 80.9707 300.109 80.8 298.957 80.672C297.848 80.544 296.589 80.48 295.181 80.48C293.645 80.48 292.493 80.6933 291.725 81.12C290.957 81.5467 290.573 82.208 290.573 83.104C290.573 83.6587 290.722 84.1067 291.021 84.448C291.32 84.7467 291.768 85.024 292.365 85.28C292.962 85.4933 293.688 85.7067 294.541 85.92C295.437 86.0907 296.461 86.304 297.613 86.56C299.149 86.8587 300.557 87.264 301.837 87.776C303.16 88.288 304.29 88.9493 305.229 89.76C306.168 90.528 306.893 91.5093 307.405 92.704C307.96 93.8987 308.237 95.3707 308.237 97.12C308.237 98.8267 307.96 100.32 307.405 101.6C306.893 102.88 306.168 103.968 305.229 104.864C304.29 105.76 303.181 106.485 301.901 107.04C300.664 107.595 299.277 108 297.741 108.256C296.205 108.512 294.626 108.64 293.005 108.64C291.469 108.64 289.976 108.555 288.525 108.384C287.074 108.256 285.666 108.064 284.301 107.808C282.936 107.509 281.57 107.125 280.205 106.656Z" fill="black"/>
<path d="M382.592 108L368.064 63.264L379.968 63.136L389.056 98.528L397.952 63.136L409.856 63.264L395.456 108H382.592ZM414.064 90.528C414.064 87.712 414.341 85.1947 414.896 82.976C415.451 80.7573 416.368 78.88 417.648 77.344C418.928 75.7653 420.656 74.5707 422.832 73.76C425.008 72.9493 427.717 72.544 430.96 72.544C434.203 72.544 436.912 72.9493 439.088 73.76C441.264 74.5707 442.992 75.7653 444.272 77.344C445.552 78.88 446.469 80.7573 447.024 82.976C447.579 85.1947 447.856 87.712 447.856 90.528C447.856 93.3867 447.557 95.9467 446.96 98.208C446.363 100.469 445.403 102.368 444.08 103.904C442.757 105.44 441.008 106.613 438.832 107.424C436.699 108.235 434.075 108.64 430.96 108.64C427.845 108.64 425.2 108.235 423.024 107.424C420.891 106.613 419.163 105.44 417.84 103.904C416.517 102.368 415.557 100.469 414.96 98.208C414.363 95.9467 414.064 93.3867 414.064 90.528ZM424.88 90.528C424.88 93.088 425.072 95.1147 425.456 96.608C425.883 98.1013 426.544 99.168 427.44 99.808C428.336 100.405 429.509 100.704 430.96 100.704C432.453 100.704 433.627 100.405 434.48 99.808C435.376 99.168 436.037 98.1013 436.464 96.608C436.891 95.1147 437.104 93.088 437.104 90.528C437.104 87.968 436.912 85.9627 436.528 84.512C436.144 83.0613 435.504 82.0373 434.608 81.44C433.712 80.8 432.496 80.48 430.96 80.48C429.424 80.48 428.208 80.8 427.312 81.44C426.459 82.0373 425.84 83.0613 425.456 84.512C425.072 85.9627 424.88 87.968 424.88 90.528ZM469.301 60.64V95.712C469.301 96.7787 469.429 97.6107 469.685 98.208C469.941 98.7627 470.282 99.1467 470.709 99.36C471.178 99.5307 471.69 99.616 472.245 99.616C472.629 99.616 473.056 99.5733 473.525 99.488C474.037 99.4027 474.592 99.2747 475.189 99.104L476.149 107.104C475.21 107.531 474.144 107.893 472.949 108.192C471.754 108.491 470.453 108.64 469.045 108.64C466.826 108.64 464.949 108.277 463.413 107.552C461.92 106.784 460.789 105.525 460.021 103.776C459.253 102.027 458.869 99.6587 458.869 96.672V60.64H469.301ZM496.636 108.64C494.332 108.64 492.391 108.213 490.812 107.36C489.233 106.464 488.039 105.099 487.228 103.264C486.46 101.387 486.076 98.9547 486.076 95.968V80.8H481.084V73.824L486.076 73.184L487.292 65.76H496.508V73.184H505.276V80.8H496.508V95.136C496.508 96.8427 496.807 98.0587 497.404 98.784C498.044 99.4667 499.025 99.808 500.348 99.808C501.073 99.808 501.841 99.744 502.652 99.616C503.463 99.4453 504.337 99.2533 505.276 99.04L506.684 106.976C504.892 107.573 503.164 108 501.5 108.256C499.836 108.512 498.215 108.64 496.636 108.64ZM515.005 106.656L516.157 99.104C516.925 99.36 517.8 99.616 518.781 99.872C519.805 100.085 520.85 100.277 521.917 100.448C522.984 100.619 524.029 100.747 525.053 100.832C526.12 100.917 527.101 100.96 527.997 100.96C529.661 100.96 530.877 100.725 531.645 100.256C532.456 99.744 532.861 99.04 532.861 98.144C532.861 97.5467 532.648 97.0773 532.221 96.736C531.837 96.352 531.261 96.0107 530.493 95.712C529.725 95.4133 528.808 95.1573 527.741 94.944C526.674 94.688 525.501 94.3893 524.221 94.048C522.77 93.7493 521.512 93.3227 520.445 92.768C519.378 92.1707 518.461 91.4667 517.693 90.656C516.968 89.8027 516.413 88.8427 516.029 87.776C515.688 86.6667 515.517 85.4293 515.517 84.064C515.517 80.224 516.733 77.344 519.165 75.424C521.597 73.504 525.202 72.544 529.981 72.544C531.432 72.544 532.818 72.6293 534.141 72.8C535.464 72.928 536.722 73.12 537.917 73.376C539.112 73.632 540.2 73.952 541.181 74.336L539.901 82.016C538.962 81.6747 537.981 81.3973 536.957 81.184C535.976 80.9707 534.909 80.8 533.757 80.672C532.648 80.544 531.389 80.48 529.981 80.48C528.445 80.48 527.293 80.6933 526.525 81.12C525.757 81.5467 525.373 82.208 525.373 83.104C525.373 83.6587 525.522 84.1067 525.821 84.448C526.12 84.7467 526.568 85.024 527.165 85.28C527.762 85.4933 528.488 85.7067 529.341 85.92C530.237 86.0907 531.261 86.304 532.413 86.56C533.949 86.8587 535.357 87.264 536.637 87.776C537.96 88.288 539.09 88.9493 540.029 89.76C540.968 90.528 541.693 91.5093 542.205 92.704C542.76 93.8987 543.037 95.3707 543.037 97.12C543.037 98.8267 542.76 100.32 542.205 101.6C541.693 102.88 540.968 103.968 540.029 104.864C539.09 105.76 537.981 106.485 536.701 107.04C535.464 107.595 534.077 108 532.541 108.256C531.005 108.512 529.426 108.64 527.805 108.64C526.269 108.64 524.776 108.555 523.325 108.384C521.874 108.256 520.466 108.064 519.101 107.808C517.736 107.509 516.37 107.125 515.005 106.656Z" fill="black"/>
<g filter="url(#filter0_dd_1_2284)">
<path d="M337.413 66.6104L343.707 56L346.854 61.3052L350.002 66.6104L330.399 99.5818L329.583 101.4C329.293 102.046 329.185 102.76 329.272 103.463V103.463C329.362 104.193 329.657 104.882 330.123 105.45L330.239 105.592C330.641 106.081 331.141 106.48 331.707 106.764L334.175 108H327.071H323.414C322.916 108 322.419 107.955 321.929 107.865L320.913 107.68C320.175 107.545 319.485 107.221 318.91 106.74V106.74C318.251 106.189 317.77 105.455 317.529 104.631L317.45 104.361V104.361C317.156 103.358 317.148 102.293 317.427 101.285L317.45 101.204V101.204C317.748 100.127 318.188 99.0946 318.757 98.133L337.413 66.6104Z" stroke="#DCDCDC"/>
<path d="M330.399 99.5819L341.023 99.3372C341.54 99.3253 342.039 99.1471 342.447 98.8291V98.8291C342.627 98.6886 342.786 98.5232 342.919 98.3378L346.315 93.619L350.452 86.8669L352.52 83.447L353.205 82.6678C353.808 81.981 354.632 81.5253 355.534 81.3786V81.3786C356.038 81.2968 356.552 81.3134 357.049 81.4274L357.304 81.486C357.65 81.5654 357.986 81.6841 358.306 81.8398V81.8398C358.936 82.1473 359.49 82.5932 359.924 83.1441L360.163 83.447L361.062 84.587L363.041 88.0069L364.21 90.0237L362.804 90.3663C362.07 90.5454 361.378 90.8672 360.768 91.3135V91.3135C360.19 91.7361 359.696 92.2626 359.311 92.866L351.41 105.253C350.956 105.966 350.355 106.572 349.647 107.033V107.033C349.108 107.383 348.515 107.643 347.893 107.803L347.867 107.809C347.374 107.936 346.867 108 346.357 108H334.086L332.303 107.263C331.526 106.941 330.84 106.43 330.31 105.777L330.198 105.639C329.682 105.004 329.353 104.239 329.246 103.428V103.428C329.119 102.469 329.309 101.494 329.788 100.654L330.399 99.5819Z" stroke="#DCDCDC"/>
<path d="M356.656 96.8635L358.274 94.4082L359.195 92.9724C359.479 92.5285 359.82 92.1235 360.209 91.7677L360.245 91.7351C360.785 91.2417 361.413 90.8544 362.096 90.5937V90.5937L363.13 90.1991L364.209 89.936L375 108H368.436H366.008H365.349C364.892 108 364.437 107.928 364.003 107.787V107.787C363.544 107.638 363.113 107.414 362.728 107.123L362.321 106.816V106.816C361.67 106.326 361.14 105.693 360.771 104.967L356.656 96.8635Z" stroke="#DCDCDC"/>
</g>
<g filter="url(#filter1_dd_1_2284)">
<path d="M336.413 66.6104L342.707 56L345.854 61.3052L349.002 66.6104L329.399 99.5817L328.583 101.4C328.293 102.046 328.185 102.76 328.272 103.463C328.362 104.193 328.657 104.882 329.123 105.45L329.239 105.592C329.641 106.081 330.141 106.48 330.707 106.764L333.175 108H326.071H322.414C321.916 108 321.419 107.955 320.929 107.865L319.913 107.68C319.175 107.545 318.485 107.221 317.91 106.74C317.251 106.189 316.77 105.455 316.529 104.631L316.45 104.361C316.156 103.358 316.148 102.293 316.427 101.285L316.45 101.204C316.748 100.127 317.188 99.0946 317.757 98.133L336.413 66.6104Z" fill="url(#paint4_linear_1_2284)"/>
<path d="M329.399 99.5819L340.023 99.3372C340.54 99.3253 341.039 99.1471 341.447 98.8291C341.627 98.6886 341.786 98.5232 341.919 98.3378L345.315 93.619L349.452 86.8669L351.52 83.447L352.205 82.6678C352.808 81.981 353.632 81.5253 354.534 81.3786C355.038 81.2968 355.552 81.3134 356.049 81.4274L356.304 81.486C356.65 81.5654 356.986 81.6841 357.306 81.8398C357.936 82.1473 358.49 82.5932 358.924 83.1441L359.163 83.447L360.062 84.587L362.041 88.0069L363.21 90.0237L361.804 90.3663C361.07 90.5454 360.378 90.8672 359.768 91.3135C359.19 91.7361 358.696 92.2626 358.311 92.866L350.41 105.253C349.956 105.966 349.355 106.572 348.647 107.033C348.108 107.383 347.515 107.643 346.893 107.803L346.867 107.809C346.374 107.936 345.867 108 345.357 108H333.086L331.303 107.263C330.526 106.941 329.84 106.43 329.31 105.777L329.198 105.639C328.682 105.004 328.353 104.239 328.246 103.428C328.119 102.469 328.309 101.494 328.788 100.654L329.399 99.5819Z" fill="url(#paint5_linear_1_2284)"/>
<path d="M355.656 96.8635L357.274 94.4082L358.195 92.9724C358.479 92.5285 358.82 92.1235 359.209 91.7677L359.245 91.7351C359.785 91.2417 360.413 90.8544 361.096 90.5937L362.13 90.1991L363.209 89.936L374 108H367.436H365.008H364.349C363.892 108 363.437 107.928 363.003 107.787C362.544 107.638 362.113 107.414 361.728 107.123L361.321 106.816C360.67 106.326 360.14 105.693 359.771 104.967L355.656 96.8635Z" fill="url(#paint6_linear_1_2284)"/>
</g>
<defs>
<filter id="filter0_dd_1_2284" x="298.723" y="45.02" width="95.1578" height="89.4801" filterUnits="userSpaceOnUse" color-interpolation-filters="sRGB">
<feFlood flood-opacity="0" result="BackgroundImageFix"/>
<feColorMatrix in="SourceAlpha" type="matrix" values="0 0 0 0 0 0 0 0 0 0 0 0 0 0 0 0 0 0 127 0" result="hardAlpha"/>
<feOffset dy="4"/>
<feGaussianBlur stdDeviation="2"/>
<feColorMatrix type="matrix" values="0 0 0 0 0 0 0 0 0 0 0 0 0 0 0 0 0 0 0.3 0"/>
<feBlend mode="normal" in2="BackgroundImageFix" result="effect1_dropShadow_1_2284"/>
<feColorMatrix in="SourceAlpha" type="matrix" values="0 0 0 0 0 0 0 0 0 0 0 0 0 0 0 0 0 0 127 0" result="hardAlpha"/>
<feMorphology radius="6" operator="dilate" in="SourceAlpha" result="effect2_dropShadow_1_2284"/>
<feOffset dy="8"/>
<feGaussianBlur stdDeviation="6"/>
<feColorMatrix type="matrix" values="0 0 0 0 0 0 0 0 0 0 0 0 0 0 0 0 0 0 0.15 0"/>
<feBlend mode="normal" in2="effect1_dropShadow_1_2284" result="effect2_dropShadow_1_2284"/>
<feBlend mode="normal" in="SourceGraphic" in2="effect2_dropShadow_1_2284" result="shape"/>
</filter>
<filter id="filter1_dd_1_2284" x="302.223" y="48" width="85.7767" height="80.0001" filterUnits="userSpaceOnUse" color-interpolation-filters="sRGB">
<feFlood flood-opacity="0" result="BackgroundImageFix"/>
<feColorMatrix in="SourceAlpha" type="matrix" values="0 0 0 0 0 0 0 0 0 0 0 0 0 0 0 0 0 0 127 0" result="hardAlpha"/>
<feOffset dy="2"/>
<feGaussianBlur stdDeviation="1.5"/>
<feColorMatrix type="matrix" values="0 0 0 0 0 0 0 0 0 0 0 0 0 0 0 0 0 0 0.3 0"/>
<feBlend mode="normal" in2="BackgroundImageFix" result="effect1_dropShadow_1_2284"/>
<feColorMatrix in="SourceAlpha" type="matrix" values="0 0 0 0 0 0 0 0 0 0 0 0 0 0 0 0 0 0 127 0" result="hardAlpha"/>
<feMorphology radius="4" operator="dilate" in="SourceAlpha" result="effect2_dropShadow_1_2284"/>
<feOffset dy="6"/>
<feGaussianBlur stdDeviation="5"/>
<feColorMatrix type="matrix" values="0 0 0 0 0 0 0 0 0 0 0 0 0 0 0 0 0 0 0.15 0"/>
<feBlend mode="normal" in2="effect1_dropShadow_1_2284" result="effect2_dropShadow_1_2284"/>
<feBlend mode="normal" in="SourceGraphic" in2="effect2_dropShadow_1_2284" result="shape"/>
</filter>
<linearGradient id="paint0_linear_1_2284" x1="118" y1="36.5" x2="30" y2="165" gradientUnits="userSpaceOnUse">
<stop stop-color="#295B90"/>
<stop offset="0.62418" stop-color="#3F83C4"/>
</linearGradient>
<linearGradient id="paint1_linear_1_2284" x1="126.5" y1="50" x2="185.5" y2="92" gradientUnits="userSpaceOnUse">
<stop stop-color="#295B90"/>
<stop offset="0.604" stop-color="#3F83C4"/>
</linearGradient>
<linearGradient id="paint2_linear_1_2284" x1="109" y1="105.185" x2="49.4362" y2="105.684" gradientUnits="userSpaceOnUse">
<stop stop-color="white"/>
<stop offset="1" stop-color="#346FA9"/>
</linearGradient>
<linearGradient id="paint3_linear_1_2284" x1="170" y1="93.5" x2="159.34" y2="93.5162" gradientUnits="userSpaceOnUse">
<stop stop-color="#3774B1"/>
<stop offset="1" stop-color="white"/>
</linearGradient>
<linearGradient id="paint4_linear_1_2284" x1="346.933" y1="58.543" x2="319.064" y2="108.691" gradientUnits="userSpaceOnUse">
<stop stop-color="#295B90"/>
<stop offset="1" stop-color="#3F83C4"/>
</linearGradient>
<linearGradient id="paint5_linear_1_2284" x1="328.05" y1="104.58" x2="355.476" y2="104.857" gradientUnits="userSpaceOnUse">
<stop offset="0.19" stop-color="#295B90"/>
<stop offset="1" stop-color="#3F83C4"/>
</linearGradient>
<linearGradient id="paint6_linear_1_2284" x1="360.961" y1="91.076" x2="366.894" y2="108.182" gradientUnits="userSpaceOnUse">
<stop stop-color="#295B90"/>
<stop offset="1" stop-color="#3F83C4"/>
</linearGradient>
</defs>
</svg>
